<?xml version="1.0" encoding="UTF-8" standalone="no"?>
<!-- Created with Inkscape (http://www.inkscape.org/) -->

<svg
   xmlns:dc="http://purl.org/dc/elements/1.1/"
   xmlns:cc="http://creativecommons.org/ns#"
   xmlns:rdf="http://www.w3.org/1999/02/22-rdf-syntax-ns#"
   xmlns:svg="http://www.w3.org/2000/svg"
   xmlns="http://www.w3.org/2000/svg"
   xmlns:sodipodi="http://sodipodi.sourceforge.net/DTD/sodipodi-0.dtd"
   xmlns:inkscape="http://www.inkscape.org/namespaces/inkscape"
   width="359.59579mm"
   height="311.45322mm"
   viewBox="0 0 1274.1582 1103.5744"
   id="svg4160"
   version="1.1"
   inkscape:version="0.92.2 (5c3e80d, 2017-08-06)"
   sodipodi:docname="plate_top_dxf.svg">
  <defs
     id="defs4162" />
  <sodipodi:namedview
     id="base"
     pagecolor="#ffffff"
     bordercolor="#666666"
     borderopacity="1.0"
     inkscape:pageopacity="0.0"
     inkscape:pageshadow="2"
     inkscape:zoom="0.70000001"
     inkscape:cx="676.36733"
     inkscape:cy="734.67587"
     inkscape:document-units="px"
     inkscape:current-layer="layer1"
     showgrid="false"
     inkscape:window-width="1920"
     inkscape:window-height="1017"
     inkscape:window-x="-8"
     inkscape:window-y="-8"
     inkscape:window-maximized="1"
     width="400mm"
     fit-margin-top="0"
     fit-margin-left="0"
     fit-margin-right="0"
     fit-margin-bottom="0" />
  <metadata
     id="metadata4165">
    <rdf:RDF>
      <cc:Work
         rdf:about="">
        <dc:format>image/svg+xml</dc:format>
        <dc:type
           rdf:resource="http://purl.org/dc/dcmitype/StillImage" />
        <dc:title />
      </cc:Work>
    </rdf:RDF>
  </metadata>
  <g
     inkscape:label="Ebene 1"
     inkscape:groupmode="layer"
     id="layer1"
     transform="translate(-21.004974,147.50504)">
    <path
       style="color:#000000;clip-rule:nonzero;display:inline;overflow:visible;visibility:visible;opacity:1;isolation:auto;mix-blend-mode:normal;color-interpolation:sRGB;color-interpolation-filters:linearRGB;solid-color:#000000;solid-opacity:1;fill:none;fill-opacity:1;fill-rule:nonzero;stroke:#0000ff;stroke-width:0.07086614;stroke-linecap:round;stroke-linejoin:round;stroke-miterlimit:4;stroke-dasharray:none;stroke-dashoffset:0;stroke-opacity:1;marker:none;color-rendering:auto;image-rendering:auto;shape-rendering:auto;text-rendering:auto;enable-background:accumulate"
       d="M 513.69247,-147.00504 267.60262,279.2352 206.07821,385.79868 144.5538,492.36215 83.029376,598.92562 21.504966,705.4891 l 18.04883,31.26172 18.04882,31.26172 18.04883,31.26172 18.04883,31.26172 72.187504,125.0332 h 492.19531 l 492.19721,-0.002 72.1875,-125.03125 18.0489,-31.26172 18.0488,-31.26172 18.0488,-31.26172 18.0489,-31.26172 L 1233.1387,598.92562 1171.6143,492.36215 1110.0899,385.79868 1048.5655,279.2352 802.47567,-147.00504 H 658.08505 Z m 38.11719,12.75 3.02726,0.61124 2.47209,1.66676 1.66675,2.47208 0.61124,3.02726 -0.61124,3.02725 -1.66675,2.4721 -2.4721,1.66675 -3.02725,0.61124 -3.02726,-0.61124 -2.47209,-1.66675 -1.66676,-2.47209 -0.61124,-3.02726 0.61124,-3.02726 1.66675,-2.47209 2.4721,-1.66675 z m 212.55859,0.002 3.02726,0.61124 2.47209,1.66676 1.66675,2.47208 0.61124,3.02726 -0.61124,3.02725 -1.66675,2.4721 -2.4721,1.66675 -3.02725,0.61124 -3.02726,-0.61124 -2.47209,-1.66675 -1.66676,-2.47209 -0.61124,-3.02726 0.61124,-3.02726 1.66675,-2.47209 2.4721,-1.66675 z m 0.002,143.4609352 2.33774,0.471982 1.90903,1.2871068 1.28711,1.909027 0.47198,2.337744 -0.47198,2.337743 -1.28711,1.909027 -1.90903,1.287107 -2.33774,0.471982 -2.33774,-0.471982 -1.90903,-1.287107 -1.28711,-1.909027 -0.47198,-2.337743 0.47198,-2.337744 1.28711,-1.909027 1.90903,-1.2871068 z m -212.56054,0.0039 2.33774,0.471985 1.90902,1.2871068 1.28711,1.909026 0.47198,2.337741 -0.47198,2.337741 -1.28711,1.909026 -1.90902,1.287108 -2.33774,0.471985 -2.33774,-0.471982 -1.90903,-1.287107 -1.28711,-1.909027 -0.47198,-2.337744 0.47198,-2.337743 1.28711,-1.909027 1.90903,-1.2871068 z m 583.45314,642.1620748 0.7489,0.0647 0.7322,0.15692 0.7069,0.24682 0.6733,0.33432 1.7886,1.57793 1.0095,2.0695 0.1598,2.29705 -0.7606,2.2606 -1.5777,1.7879 -2.0689,1.00928 -2.2964,0.16001 -2.2602,-0.75992 -1.7884,-1.57731 -1.0099,-2.06884 -0.1605,-2.29655 0.7596,-2.26043 0.9126,-1.20162 1.1639,-0.9243 1.3552,-0.61037 1.4863,-0.2598 0.1064,-0.004 0.1064,-0.002 0.1065,-5.3e-4 z m -954.3594,0.008 1.60706,0.17956 1.47659,0.58843 1.2707,0.95491 0.98941,1.27905 0.75958,2.26043 -0.1605,2.29655 -1.00984,2.06884 -1.78846,1.57731 -2.26012,0.75992 -2.29641,-0.16001 -2.06893,-1.00928 -1.57767,-1.7879 -0.76065,-2.2606 0.1598,-2.29705 1.00954,-2.0695 1.78858,-1.57793 0.67327,-0.33432 0.70696,-0.24682 0.73217,-0.15692 z m 1077.1113,69.06836 0.9698,0.0837 0.948,0.20311 0.9155,0.31949 0.8718,0.4328 2.3167,2.04293 1.3079,2.67973 0.2075,2.97465 -0.9844,2.92769 -2.043,2.31667 -2.6797,1.30791 -2.9747,0.20754 -2.9276,-0.98446 -2.3162,-2.04329 -1.3073,-2.67982 -0.2071,-2.97451 0.9848,-2.92738 1.1814,-1.5561 1.5068,-1.19713 1.7546,-0.79073 1.9244,-0.3369 0.1377,-0.005 0.1377,-0.003 0.1377,-2.4e-4 z m -1199.859344,0.008 2.08098,0.23243 1.91207,0.76182 1.64552,1.23637 1.28135,1.6561 0.98446,2.92769 -0.20754,2.97465 -1.30791,2.67973 -2.31667,2.04293 -2.9272,0.98374 -2.97401,-0.20776 -2.67916,-1.30766 -2.04267,-2.31598 -0.98408,-2.92689 0.20726,-2.97388 1.3071,-2.67925 2.31542,-2.04302 0.87173,-0.43331 0.9154,-0.31999 0.94811,-0.2036 z m 970.828144,115 0.7489,0.0647 0.7322,0.15693 0.7069,0.24681 0.6733,0.33433 1.7886,1.57793 1.0095,2.0695 0.1598,2.29705 -0.7606,2.2606 -1.5777,1.7879 -2.0689,1.00928 -2.2964,0.16 -2.2602,-0.75992 -1.7884,-1.57731 -1.0099,-2.06884 -0.1605,-2.29654 0.7596,-2.26043 0.9126,-1.20162 1.1639,-0.92431 1.3552,-0.61037 1.4863,-0.2598 0.1064,-0.004 0.1064,-0.002 0.1065,-5.3e-4 z m -741.79689,0.006 1.60682,0.1792 1.47648,0.58795 1.27077,0.95437 0.98968,1.27848 0.7603,2.26091 -0.16028,2.29718 -1.0101,2.06941 -1.78914,1.57758 -2.26043,0.75958 -2.29654,-0.1605 -2.06884,-1.00984 -1.57732,-1.78846 -0.75992,-2.26012 0.16001,-2.29641 1.00928,-2.06892 1.7879,-1.57767 0.67327,-0.33433 0.70696,-0.24681 0.73217,-0.15693 z m 864.54689,69.06641 0.9697,0.0837 0.9481,0.20311 0.9154,0.31949 0.8718,0.4328 2.3167,2.04293 1.3079,2.67973 0.2076,2.97465 -0.9845,2.92769 -2.0429,2.31667 -2.6798,1.30791 -2.9746,0.20754 -2.9277,-0.98446 -2.3161,-2.04329 -1.3074,-2.67982 -0.207,-2.97451 0.9848,-2.92738 1.1813,-1.5561 1.5069,-1.19713 1.7545,-0.79073 1.9245,-0.3369 0.1376,-0.005 0.1377,-0.003 0.1377,-2.4e-4 z m -987.3008,0.01 2.08098,0.23243 1.91207,0.76182 1.64552,1.23637 1.28135,1.6561 0.98447,2.92768 -0.20754,2.97465 -1.30792,2.67973 -2.31666,2.04294 -2.9272,0.98374 -2.97401,-0.20775 -2.67917,-1.30766 -2.04267,-2.31598 -0.98481,-2.92737 0.20705,-2.97452 1.30735,-2.67982 2.31611,-2.04329 0.87183,-0.4328 0.91543,-0.31949 0.94808,-0.20312 z"
       id="path5485-9-7-5-4"
       inkscape:connector-curvature="0"
       sodipodi:nodetypes="ccccccccccccccccccccccccccccccccccccccccccccccccccccccccccccccccccccccccccccccccccccccccccccccccccccccccccccccccccccccccccccccccccccccccccccccccccccccccccccccccccccccccccccccccccccccccccccccccccccccccccccccccccccccccccccccccccccccccccccccccccccccccccccccccccccccccccccccccccccc" />
  </g>
</svg>
